<svg xmlns="http://www.w3.org/2000/svg" xmlns:xlink="http://www.w3.org/1999/xlink" width="125" height="40" viewBox="0 0 125 40">
    <defs>
        <path id="a601260rla" d="M0.07 0.083L35.066 0.083 35.066 25.344 0.07 25.344z"/>
    </defs>
    <g fill="none" fill-rule="evenodd">
        <g>
            <g>
                <path fill="#2D4F6E" d="M12.693.215c1.241-.873 2.012 1.13 2.784 2.132 3.077 4.001 7.28 7.298 12.156 9.642 2.326 1.119 8.054 3.681 8.259-.927.028-.643-.192-1.957-.464-2.874-.255-.86-.774-1.959 0-2.317.88-.41 1.853 1.207 2.506 2.225 1.791 2.8 3.267 6.88 3.247 11.217-.011 2.432-.847 3.898-3.062 4.172-1.774.22-3.87-.344-5.383-.834-7.54-2.44-13.242-7.455-16.98-13.628-1.154-1.904-2.077-3.94-2.784-6.397-.209-.723-.735-1.595-.279-2.411" transform="translate(-115 -20) translate(115 20)"/>
                <path fill="#4F8C81" d="M40.346 24.69c-1.382 5.026-3.932 8.42-7.702 11.126-3.409 2.447-8.563 4.561-14.662 3.8-7.937-.989-13.444-5.63-16.331-11.959-.48-1.048-.846-2.035-1.207-3.523-.191-.789-.446-1.77-.444-2.519.001-.546.139-.967.537-1.096.764-.25 1.597 1.187 2.042 1.76 3.356 4.33 8.039 7.684 14.568 9.18 1.267.29 2.59.226 2.598-.928.007-1-2.119-1.915-2.69-2.317-2.911-2.047-5.37-4.516-7.517-7.417-1.88-2.54-3.752-6.06-5.01-10.013-.277-.868-1.59-4.05-.094-3.987.668.03 1.109.779 1.67 1.577 4.729 6.71 11.482 12.042 19.673 15.204 4.088 1.578 10.408 3.441 14.569 1.113" transform="translate(-115 -20) translate(115 20)"/>
                <path fill="#2D4F6E" d="M66.514 14.585c.022 4.551.208 8.94.185 13.536.462-.43.603-1.118.836-1.669 1.611-3.803 3.358-7.98 5.01-11.867h15.22c-1.655 8.484-3.459 16.818-5.197 25.217h-9.001c1.17-6.062 2.452-12.012 3.712-17.985-.335.24-.482.665-.65 1.02-2.633 5.55-5.37 11.385-8.073 16.965h-7.702c-.395-5.971-.792-11.94-1.114-17.985-.284.227-.306.71-.371 1.02-1.168 5.56-2.279 11.437-3.526 16.965h-9.001c.775-3.924 1.742-8.504 2.69-12.979.902-4.25 1.25-8.875 4.64-10.94 2.903-1.768 7.696-1.167 12.342-1.298" transform="translate(-115 -20) translate(115 20)"/>
                <g transform="translate(-115 -20) translate(115 20) translate(89.853 14.502)">
                    <mask id="eob11w299b" fill="#fff">
                        <use xlink:href="#a601260rla"/>
                    </mask>
                    <path fill="#2D4F6E" d="M.23.083c3.778.229 7.684-.515 9.651 1.39 1.617 1.566 1.675 5.24 2.042 7.974.411 3.064.818 6.212 1.113 8.9.338.047.602-.554.835-.927C17.395 11.789 21.125 5.8 24.728.176h10.209c.333.03-.068.447-.187.649-.92 1.56-2.092 3.245-3.155 4.913-2.385 3.743-4.79 7.438-7.238 11.31-2.453 3.883-4.608 7.525-10.393 8.16-3.464.38-7.717.044-9.464-2.04-.96-1.145-1.468-3.092-1.764-5.1C1.874 12.219.953 5.88.138.362.034.228.038.135.231.083" mask="url(#eob11w299b)"/>
                </g>
            </g>
        </g>
    </g>
</svg>
