<svg xmlns="http://www.w3.org/2000/svg" xmlns:xlink="http://www.w3.org/1999/xlink" width="100" height="32" viewBox="0 0 100 32">
    <defs>
        <path id="jg2li7fpya" d="M0.056 0.066L28.053 0.066 28.053 20.275 0.056 20.275z"/>
    </defs>
    <g fill="none" fill-rule="evenodd">
        <g>
            <g>
                <g>
                    <path fill="#FEFEFE" d="M10.154.172c.993-.698 1.61.903 2.227 1.706 2.462 3.2 5.825 5.838 9.726 7.713 1.86.895 6.443 2.945 6.606-.741.023-.515-.153-1.566-.37-2.3-.205-.687-.62-1.567 0-1.854.704-.327 1.482.966 2.004 1.78 1.433 2.24 2.614 5.505 2.598 8.975-.01 1.945-.678 3.118-2.45 3.337-1.419.176-3.095-.275-4.306-.667-6.032-1.952-10.593-5.964-13.585-10.903-.922-1.523-1.661-3.151-2.227-5.117-.166-.579-.588-1.276-.223-1.929" transform="translate(-115 -6361) translate(0 5483) translate(115 878)"/>
                    <path fill="#FEFEFE" d="M32.277 19.752c-1.106 4.02-3.146 6.736-6.162 8.9-2.727 1.958-6.85 3.65-11.73 3.041-6.35-.791-10.754-4.505-13.064-9.567-.384-.84-.677-1.628-.966-2.818C.202 18.676 0 17.89 0 17.292c.001-.436.111-.773.43-.877.61-.2 1.277.95 1.633 1.409 2.685 3.463 6.431 6.146 11.655 7.343 1.013.232 2.072.181 2.078-.742.006-.8-1.695-1.532-2.152-1.854-2.329-1.638-4.295-3.612-6.014-5.933-1.503-2.032-3.002-4.848-4.008-8.01-.221-.696-1.27-3.241-.075-3.19.534.023.887.623 1.337 1.26 3.782 5.37 9.185 9.635 15.738 12.165 3.27 1.262 8.326 2.752 11.655.89M53.211 11.668c.018 3.641.167 7.152.148 10.829.37-.344.482-.895.669-1.335 1.29-3.043 2.687-6.385 4.009-9.494H70.21c-1.323 6.787-2.766 13.454-4.157 20.174h-7.2c.936-4.85 1.961-9.61 2.969-14.389-.268.192-.386.532-.52.816-2.106 4.44-4.296 9.108-6.458 13.573h-6.162c-.316-4.777-.634-9.553-.891-14.389-.227.183-.244.568-.297.816-.934 4.45-1.823 9.15-2.82 13.573h-7.202c.62-3.14 1.394-6.803 2.153-10.384.721-3.4 1-7.1 3.712-8.752 2.322-1.414 6.156-.933 9.873-1.038" transform="translate(-115 -6361) translate(0 5483) translate(115 878)"/>
                    <g transform="translate(-115 -6361) translate(0 5483) translate(115 878) translate(71.883 11.602)">
                        <mask id="ajnfrgh3yb" fill="#fff">
                            <use xlink:href="#jg2li7fpya"/>
                        </mask>
                        <path fill="#FEFEFE" d="M.185.066C3.207.25 6.33-.346 7.905 1.18 9.198 2.43 9.245 5.37 9.538 7.557c.33 2.452.655 4.97.891 7.12.27.038.481-.442.668-.741C13.917 9.43 16.9 4.64 19.783.14h8.166c.267.023-.054.358-.149.519-.737 1.248-1.673 2.596-2.524 3.93-1.908 2.995-3.832 5.95-5.79 9.049-1.963 3.105-3.687 6.02-8.315 6.527-2.771.304-6.173.035-7.571-1.632-.768-.915-1.174-2.473-1.411-4.079C1.499 9.775.762 4.705.11.29.027.182.03.108.185.066" mask="url(#ajnfrgh3yb)"/>
                    </g>
                </g>
            </g>
        </g>
    </g>
</svg>
